<svg width="40" height="40" viewBox="0 0 40 40" fill="none" xmlns="http://www.w3.org/2000/svg">
<path fill-rule="evenodd" clip-rule="evenodd" d="M29.8127 17.0641C29.8127 17.0641 29.997 18 30.0599 18.009C33.4537 18.4929 36 20.4725 36 24C36 27.866 32.866 31 29 31H11C7.13401 31 4 27.866 4 24C4 20.4725 6.60923 17.5544 10.003 17.0705C10.0659 17.0615 10.1275 17.0596 10.1873 17.0641C11.0889 12.4677 15.1395 9 20 9C24.8605 9 28.9111 12.4677 29.8127 17.0641Z" fill="#F3F3F3"/>
<path d="M11.5294 31C7.37103 31 4 27.7168 4 23.6667C4 20.1291 6.57182 17.1766 9.99378 16.486C11.1702 12.1758 15.2043 9 20 9C25.4215 9 29.8697 13.0587 30.3161 18.2266C33.5268 18.6559 36 21.3383 36 24.5833C36 28.1272 33.0503 31 29.4118 31H11.5294Z" stroke="#231815" stroke-width="2" stroke-linecap="round" stroke-linejoin="round"/>
</svg>
